<svg xmlns="http://www.w3.org/2000/svg" width="1200" height="630" viewBox="0 0 1200 630">
  <defs>
    <linearGradient id="bg" x1="0" y1="0" x2="1" y2="1"><stop offset="0%" stop-color="#0a0c17"/><stop offset="50%" stop-color="#131628"/><stop offset="100%" stop-color="#0d0f1f"/></linearGradient>
    <linearGradient id="r1" x1="0" y1="0" x2="1" y2="1"><stop offset="0%" stop-color="#ff6b6b"/><stop offset="100%" stop-color="#ffd93d"/></linearGradient>
    <linearGradient id="rw" x1="0" y1="0" x2="1" y2="1"><stop offset="0%" stop-color="#4d96ff"/><stop offset="100%" stop-color="#6bcb77"/></linearGradient>
  </defs>
  <rect width="1200" height="630" fill="url(#bg)"/>
  <circle cx="300" cy="200" r="180" fill="rgba(77,150,255,0.06)"/>
  <circle cx="900" cy="400" r="160" fill="rgba(255,107,107,0.05)"/>
  <rect x="180" y="160" width="220" height="200" rx="24" fill="rgba(255,255,255,0.04)" stroke="url(#r1)" stroke-width="2"/>
  <text x="290" y="225" font-family="Arial,sans-serif" font-size="16" fill="#9ca3af" text-anchor="middle">HEIC</text>
  <text x="290" y="250" font-family="Arial,sans-serif" font-size="13" fill="#6b7280" text-anchor="middle">iPhone Photo</text>
  <path d="M420 260 L520 260" stroke="#818cf8" stroke-width="3"/>
  <polygon points="510,250 530,260 510,270" fill="#818cf8"/>
  <rect x="540" y="160" width="220" height="200" rx="24" fill="rgba(255,255,255,0.04)" stroke="url(#rw)" stroke-width="2"/>
  <text x="650" y="225" font-family="Arial,sans-serif" font-size="16" fill="#9ca3af" text-anchor="middle">JPG</text>
  <text x="650" y="250" font-family="Arial,sans-serif" font-size="13" fill="#6b7280" text-anchor="middle">Windows Compatible</text>
  <text x="600" y="340" font-family="Arial,sans-serif" font-size="13" fill="#6b7280" text-anchor="middle">Browser-based • No install needed</text>
  <rect x="500" y="410" width="200" height="50" rx="25" fill="rgba(99,102,241,0.2)" stroke="#818cf8" stroke-width="1"/>
  <text x="600" y="441" font-family="Arial,sans-serif" font-size="16" font-weight="600" fill="#818cf8" text-anchor="middle">Windows 10 &amp; 11</text>
  <text x="600" y="510" font-family="Arial,sans-serif" font-size="32" font-weight="700" fill="#e8eaf0" text-anchor="middle">Convert HEIC to JPG on Windows</text>
  <text x="600" y="545" font-family="Arial,sans-serif" font-size="18" fill="#9ca3af" text-anchor="middle">Free methods • Built-in tools • Step-by-step</text>
</svg>
