<svg xmlns="http://www.w3.org/2000/svg" width="1200" height="630" viewBox="0 0 1200 630">
  <defs>
    <linearGradient id="bg" x1="0" y1="0" x2="1" y2="1"><stop offset="0%" stop-color="#0a0c17"/><stop offset="50%" stop-color="#131628"/><stop offset="100%" stop-color="#0d0f1f"/></linearGradient>
    <linearGradient id="androidGrad" x1="0" y1="0" x2="0" y2="1"><stop offset="0%" stop-color="#6bcb77"/><stop offset="100%" stop-color="#4d96ff"/></linearGradient>
    <linearGradient id="heicBadge" x1="0" y1="0" x2="1" y2="1"><stop offset="0%" stop-color="#9b59b6"/><stop offset="100%" stop-color="#ff6b6b"/></linearGradient>
    <linearGradient id="mdRed" x1="0" y1="0" x2="0" y2="1"><stop offset="0%" stop-color="#ff6b6b"/><stop offset="100%" stop-color="#ffd93d"/></linearGradient>
    <linearGradient id="mdGreen" x1="0" y1="0" x2="0" y2="1"><stop offset="0%" stop-color="#6bcb77"/><stop offset="100%" stop-color="#4d96ff"/></linearGradient>
    <linearGradient id="mdBlue" x1="0" y1="0" x2="0" y2="1"><stop offset="0%" stop-color="#4d96ff"/><stop offset="100%" stop-color="#9b59b6"/></linearGradient>
    <linearGradient id="mdYellow" x1="0" y1="0" x2="0" y2="1"><stop offset="0%" stop-color="#ffd93d"/><stop offset="100%" stop-color="#ff6b6b"/></linearGradient>
  </defs>
  <rect width="1200" height="630" fill="url(#bg)"/>
  <circle cx="300" cy="200" r="220" fill="rgba(107,203,119,0.04)"/>
  <circle cx="900" cy="450" r="200" fill="rgba(77,150,255,0.04)"/>
  <circle cx="600" cy="315" r="260" fill="rgba(155,89,182,0.03)"/>

  <g transform="translate(180,100)">
    <rect x="0" y="0" width="200" height="370" rx="24" fill="#1a1d2e" stroke="rgba(255,255,255,0.08)" stroke-width="2"/>
    <rect x="75" y="12" width="50" height="4" rx="2" fill="rgba(255,255,255,0.1)"/>
    <rect x="30" y="40" width="140" height="200" rx="6" fill="#0d0f1f"/>
    <rect x="45" y="55" width="110" height="170" rx="4" fill="#1e2130"/>
    <circle cx="100" cy="80" r="35" fill="rgba(107,203,119,0.15)"/>
    <text x="100" y="86" font-family="Arial,sans-serif" font-size="16" fill="#6bcb77" text-anchor="middle">📷</text>
    <rect x="55" y="130" width="90" height="8" rx="4" fill="rgba(255,255,255,0.06)"/>
    <rect x="55" y="148" width="70" height="8" rx="4" fill="rgba(255,255,255,0.04)"/>
    <rect x="55" y="166" width="80" height="8" rx="4" fill="rgba(255,255,255,0.04)"/>
    <rect x="55" y="195" width="90" height="8" rx="4" fill="rgba(255,255,255,0.06)"/>
    <rect x="30" y="258" width="140" height="48" rx="6" fill="rgba(155,89,182,0.15)"/>
    <text x="100" y="278" font-family="Arial,sans-serif" font-size="12" font-weight="700" fill="#9b59b6" text-anchor="middle">HEIC FILE</text>
    <text x="100" y="295" font-family="Arial,sans-serif" font-size="9" fill="rgba(255,255,255,0.3)" text-anchor="middle">from iPhone</text>
    <rect x="30" y="320" width="140" height="30" rx="15" fill="rgba(77,150,255,0.1)"/>
    <circle cx="48" cy="335" r="3" fill="#4d96ff"/>
    <text x="65" y="339" font-family="Arial,sans-serif" font-size="10" fill="#4d96ff" font-weight="600">Open</text>
  </g>

  <g transform="translate(450,190)">
    <circle cx="0" cy="0" r="30" fill="rgba(255,255,255,0.04)"/>
    <text x="0" y="8" font-family="Arial,sans-serif" font-size="24" fill="rgba(255,255,255,0.2)" text-anchor="middle">→</text>
  </g>

  <g transform="translate(570,120)">
    <rect x="0" y="0" width="220" height="340" rx="20" fill="rgba(255,255,255,0.02)" stroke="rgba(255,255,255,0.06)" stroke-width="1.5"/>
    <text x="110" y="45" font-family="Arial,sans-serif" font-size="16" font-weight="700" fill="#e8eaf0" text-anchor="middle">Options</text>
    <line x1="20" y1="60" x2="200" y2="60" stroke="rgba(255,255,255,0.05)" stroke-width="1"/>

    <rect x="20" y="75" width="180" height="44" rx="10" fill="rgba(76,175,80,0.1)"/>
    <text x="36" y="102" font-family="Arial,sans-serif" font-size="13" font-weight="600" fill="#6bcb77">Google Photos</text>
    <text x="185" y="102" font-family="Arial,sans-serif" font-size="10" fill="rgba(255,255,255,0.3)" text-anchor="end">✓ Free</text>

    <rect x="20" y="130" width="180" height="44" rx="10" fill="rgba(77,150,255,0.1)"/>
    <text x="36" y="157" font-family="Arial,sans-serif" font-size="13" font-weight="600" fill="#4d96ff">HEIC Converter</text>
    <text x="185" y="157" font-family="Arial,sans-serif" font-size="10" fill="rgba(255,255,255,0.3)" text-anchor="end">★ Best</text>

    <rect x="20" y="185" width="180" height="44" rx="10" fill="rgba(255,217,61,0.1)"/>
    <text x="36" y="212" font-family="Arial,sans-serif" font-size="13" font-weight="600" fill="#ffd93d">File Viewer</text>
    <text x="185" y="212" font-family="Arial,sans-serif" font-size="10" fill="rgba(255,255,255,0.3)" text-anchor="end">✓ Simple</text>

    <rect x="20" y="240" width="180" height="44" rx="10" fill="rgba(155,89,182,0.1)"/>
    <text x="36" y="267" font-family="Arial,sans-serif" font-size="13" font-weight="600" fill="#9b59b6">Online Convert</text>
    <text x="185" y="267" font-family="Arial,sans-serif" font-size="10" fill="rgba(255,255,255,0.3)" text-anchor="end">✓ No app</text>

    <rect x="20" y="295" width="180" height="30" rx="15" fill="rgba(255,107,107,0.08)"/>
    <text x="110" y="316" font-family="Arial,sans-serif" font-size="11" fill="rgba(255,107,107,0.6)" text-anchor="middle">Convert to JPG / PNG</text>
  </g>

  <text x="600" y="520" font-family="Arial,sans-serif" font-size="38" font-weight="700" fill="#e8eaf0" text-anchor="middle">How to Open HEIC Files on Android</text>
  <text x="600" y="560" font-family="Arial,sans-serif" font-size="20" fill="#9ca3af" text-anchor="middle">Android • Google Photos • Third-party apps</text>
</svg>