<svg xmlns="http://www.w3.org/2000/svg" width="1200" height="630" viewBox="0 0 1200 630">
  <defs>
    <linearGradient id="bg" x1="0" y1="0" x2="1" y2="1"><stop offset="0%" stop-color="#0a0c17"/><stop offset="50%" stop-color="#131628"/><stop offset="100%" stop-color="#0d0f1f"/></linearGradient>
    <linearGradient id="losslessGrad" x1="0" y1="0" x2="0" y2="1"><stop offset="0%" stop-color="#6bcb77"/><stop offset="100%" stop-color="#4d96ff"/></linearGradient>
    <linearGradient id="lossyGrad" x1="0" y1="0" x2="0" y2="1"><stop offset="0%" stop-color="#ff6b6b"/><stop offset="100%" stop-color="#ffd93d"/></linearGradient>
  </defs>
  <rect width="1200" height="630" fill="url(#bg)"/>
  <circle cx="300" cy="250" r="250" fill="rgba(107,203,119,0.04)"/>
  <circle cx="900" cy="250" r="250" fill="rgba(255,107,107,0.04)"/>

  <rect x="120" y="100" width="420" height="280" rx="16" fill="#1a1d2e" stroke="rgba(107,203,119,0.15)" stroke-width="2"/>
  <rect x="140" y="120" width="380" height="240" rx="8" fill="#1e2130"/>
  <circle cx="330" cy="200" r="60" fill="rgba(107,203,119,0.08)"/>
  <circle cx="330" cy="200" r="40" fill="rgba(107,203,119,0.12)"/>
  <circle cx="330" cy="200" r="20" fill="rgba(107,203,119,0.2)"/>
  <rect x="260" y="260" width="30" height="30" rx="4" fill="rgba(107,203,119,0.15)" transform="rotate(45, 275, 275)"/>
  <rect x="310" y="250" width="20" height="20" rx="3" fill="rgba(107,203,119,0.12)" transform="rotate(30, 320, 260)"/>
  <rect x="350" y="270" width="25" height="25" rx="3" fill="rgba(107,203,119,0.1)" transform="rotate(60, 362, 282)"/>
  <line x1="200" y1="310" x2="460" y2="310" stroke="rgba(107,203,119,0.08)" stroke-width="1"/>
  <line x1="250" y1="320" x2="420" y2="320" stroke="rgba(107,203,119,0.06)" stroke-width="1"/>

  <rect x="660" y="100" width="420" height="280" rx="16" fill="#1a1d2e" stroke="rgba(255,107,107,0.15)" stroke-width="2"/>
  <rect x="680" y="120" width="380" height="240" rx="8" fill="#1e2130"/>
  <circle cx="870" cy="200" r="60" fill="rgba(255,107,107,0.08)"/>
  <circle cx="870" cy="200" r="40" fill="rgba(255,107,107,0.06)"/>
  <circle cx="870" cy="200" r="20" fill="rgba(255,107,107,0.04)"/>
  <circle cx="840" cy="185" r="30" fill="rgba(255,107,107,0.06)"/>
  <circle cx="900" cy="215" r="25" fill="rgba(255,107,107,0.05)"/>
  <circle cx="855" cy="220" r="20" fill="rgba(255,107,107,0.04)"/>
  <circle cx="885" cy="180" r="15" fill="rgba(255,107,107,0.03)"/>
  <line x1="740" y1="310" x2="1000" y2="310" stroke="rgba(255,107,107,0.08)" stroke-width="1"/>
  <line x1="770" y1="320" x2="980" y2="320" stroke="rgba(255,107,107,0.06)" stroke-width="1"/>

  <rect x="120" y="410" width="180" height="40" rx="20" fill="rgba(107,203,119,0.15)"/>
  <text x="210" y="436" font-family="Arial,sans-serif" font-size="16" font-weight="700" fill="#6bcb77" text-anchor="middle">✓ LOSSLESS</text>

  <rect x="900" y="410" width="180" height="40" rx="20" fill="rgba(255,107,107,0.15)"/>
  <text x="990" y="436" font-family="Arial,sans-serif" font-size="16" font-weight="700" fill="#ff6b6b" text-anchor="middle">✗ LOSSY</text>

  <text x="210" y="400" font-family="Arial,sans-serif" font-size="13" fill="rgba(255,255,255,0.3)" text-anchor="middle">Full quality, larger files</text>
  <text x="990" y="400" font-family="Arial,sans-serif" font-size="13" fill="rgba(255,255,255,0.3)" text-anchor="middle">Smaller files, quality loss</text>

  <text x="600" y="505" font-family="Arial,sans-serif" font-size="38" font-weight="700" fill="#e8eaf0" text-anchor="middle">Lossless vs Lossy Image Compression</text>
  <text x="600" y="545" font-family="Arial,sans-serif" font-size="20" fill="#9ca3af" text-anchor="middle">Quality • File size • Use cases</text>
</svg>